<?xml version="1.0" encoding="UTF-8"?>
<svg width="86px" height="116px" viewBox="0 0 86 116" version="1.1" xmlns="http://www.w3.org/2000/svg" xmlns:xlink="http://www.w3.org/1999/xlink">
    <!-- Generator: Sketch 48.2 (47327) - http://www.bohemiancoding.com/sketch -->
    <title>The_Human_User_B</title>
    <desc>Created with Sketch.</desc>
    <defs></defs>
    <g id="Page-1" stroke="none" stroke-width="1" fill="none" fill-rule="evenodd">
        <g id="The_Human_User_B" fill="#000000">
            <g id="Group">
                <path d="M21.7265485,49.5029878 C15.729708,55.806015 9.48752515,64.6383524 3,76 L0.438476562,73.859375 C15.4124349,47.3797201 29.5996094,34.1398926 43,34.1398926 C56.4003906,34.1398926 70.7094727,47.3797201 85.9272461,73.859375 L83,76 C75.5734448,62.9938225 68.4683956,53.3021511 61.6848525,46.9249858 C64.3116484,50.6305604 65.891827,55.1303249 65.9946506,59.9935419 L66,60.0095825 L66,85 L66,109 L79,109 L79,113 L66,113 L62,113 L62,85 L23,85 L23,112 L36,112 L36,116 L23,116 L19,116 L19,85 L19,60.0274048 L19.0049587,60.0123698 C19.0821379,56.2207287 20.0573411,52.6495948 21.7265485,49.5029878 Z" id="Combined-Shape"></path>
                <circle id="Oval-2" cx="43.5" cy="15.5" r="15.5"></circle>
            </g>
        </g>
    </g>
</svg>